<svg width="396" height="107.02758668576585" viewBox="0 0 370 100.0005229134681" class="css-1j8o68f"><defs id="SvgjsDefs1055"></defs><g id="SvgjsG1056" featurekey="symbolFeature-0" transform="matrix(1.1235953129808554,0,0,1.1235953129808554,-6.179790294554585,-6.179574914212188)" fill="#ffcdcd"><title xmlns="http://www.w3.org/2000/svg">Artboard 10</title><path xmlns="http://www.w3.org/2000/svg" d="M20.59766,83.41064c1.09863.958,2.12793,1.7832,3.14453,2.521A44.17426,44.17426,0,0,0,49.99316,94.5a39.90027,39.90027,0,0,0,4.35449-.22119,43.80257,43.80257,0,0,0,17.126-5.29248,44.57384,44.57384,0,0,0,22.35059-46.752c-.13184-.79395-.30371-1.61279-.52441-2.502-.002-.01562-.00488-.03076-.00781-.04639-.20483-.8866-.42651-1.70587-.67383-2.49854v-.001l-.00049-.001-.00342-.01166A44.69135,44.69135,0,0,0,76.27466,14.084l-.00537-.004A44.14166,44.14166,0,0,0,49.99316,5.5h-.55859A44.25694,44.25694,0,0,0,34.46,8.291l-.01477.0047-.04089.01239c-.28027.06836-.55957.16064-.82812.25488a7.23724,7.23724,0,0,0-1.30566.60645c-.0166.00635-.0332.01367-.04883.02148l-.06433.03278a44.51609,44.51609,0,0,0-11.55969,74.187ZM89.80493,40.446a3.07486,3.07486,0,0,0,1.70874,2.12982c-.23389.73572-.49536,1.49866-.79687,2.29187a48.14564,48.14564,0,0,1-6.371,11.60779,4.23547,4.23547,0,0,0-4.402-.1098,69.83571,69.83571,0,0,0-12.71509-12.487c-1.0448-2.76062-2.15259-5.38385-3.29614-7.7981a.44045.44045,0,0,0-.02637-.06934c-1.18506-2.509-2.4519-4.8985-3.77295-7.16949a38.85887,38.85887,0,0,0,2.938,2.57574.54045.54045,0,0,0,.07227.06934,42.17534,42.17534,0,0,0,26.15137,8.96631C89.467,40.45313,89.63452,40.44794,89.80493,40.446Zm.92847-.64716A2.0705,2.0705,0,0,1,91.811,37.99139c.17676.60345.34375,1.2196.49756,1.88019a.43161.43161,0,0,0,.01074.061c.17041.68207.30249,1.31378.41736,1.9306a2.06426,2.06426,0,0,1-1.991-1.94238l.00037-.00238-.0011-.00476C90.7428,39.87488,90.7334,39.83813,90.7334,39.79883Zm-8.68945,23.7168a3.35669,3.35669,0,1,1,3.35645-3.35645A3.36067,3.36067,0,0,1,82.04395,63.51563ZM70.82056,88.19891a42.81552,42.81552,0,0,1-16.39612,5.0639,36.89766,36.89766,0,0,1-7.96887-7.30731,5.58327,5.58327,0,0,0,1.82666-4.143,5.68919,5.68919,0,0,0-.05762-.787A72.68112,72.68112,0,0,0,72.38843,69.64209C73.071,77.11786,72.53784,83.51691,70.82056,88.19891ZM38.05566,82.53613a5.02392,5.02392,0,0,1-.05859-.72363,4.643,4.643,0,0,1,9.17163-1.02386l.00024.00531.001.00159a4.24788,4.24788,0,0,1,.1123,1.017A4.60448,4.60448,0,0,1,45.45117,85.501a4.63508,4.63508,0,0,1-7.39551-2.96484Zm1.25781-51.96338a4.64287,4.64287,0,1,1,4.44531,5.9873A4.62335,4.62335,0,0,1,39.11621,31.918,4.58424,4.58424,0,0,1,39.31348,30.57275ZM55.293,26.66064a4.3,4.3,0,0,0,2.02075-.52045,89.69,89.69,0,0,1,5.66187,10.24115.45685.45685,0,0,0,.02637.0708c.937,1.97443,1.84912,4.09637,2.72314,6.31647a84.48615,84.48615,0,0,0-7.355-4.79108,79.60236,79.60236,0,0,0-9.1958-4.56024,5.40467,5.40467,0,0,0-1.05347-5.03973c1.3031-1.17334,2.61646-2.24908,3.91626-3.208A4.33044,4.33044,0,0,0,55.293,26.66064ZM40.496,36.50092a5.59349,5.59349,0,0,0,8.33215-2.14386,78.6469,78.6469,0,0,1,9.041,4.48621,83.97373,83.97373,0,0,1,8.53467,5.66132c.20068.53241.40076,1.074.59033,1.62042a98.94752,98.94752,0,0,1,5.28772,22.3653A71.53061,71.53061,0,0,1,47.981,80.056a5.58555,5.58555,0,0,0-7.98657-3.20886,98.27239,98.27239,0,0,1-7.66846-15.90375,6.88953,6.88953,0,0,0,.54956-12.4295A70.2772,70.2772,0,0,1,40.496,36.50092ZM73.20386,67.78979A100.4379,100.4379,0,0,0,67.9375,45.79248c-.01343-.03845-.02832-.07623-.04187-.11469a68.02546,68.02546,0,0,1,11.2312,11.26794,4.28743,4.28743,0,0,0-.39209,6.01447A59.16941,59.16941,0,0,1,73.20386,67.78979ZM55.293,25.66064a3.35693,3.35693,0,1,1,3.35645-3.35693A3.36077,3.36077,0,0,1,55.293,25.66064Zm0-7.71387a4.3262,4.3262,0,0,0-1.73291.36389,35.6965,35.6965,0,0,1-2.73486-7.29114,33.83927,33.83927,0,0,1-.81226-4.51917,43.13559,43.13559,0,0,1,24.68042,7.6933,51.94349,51.94349,0,0,0-15.93481,5.4989A4.33788,4.33788,0,0,0,55.293,17.94678Zm-5.43652-6.68164a36.296,36.296,0,0,0,2.14673,6.08875c-.4397-.4964-.87158-.96625-1.302-1.41541C46.32349,11.37714,41.974,8.7099,38.08167,8.15753A43.33763,43.33763,0,0,1,49.00586,6.51465,34.71411,34.71411,0,0,0,49.85645,11.26514Zm-17.209-1.16748L32.651,10.096c.0116-.00421.02356-.0083.03455-.01349.65356-.28876,1.3313-.55267,2.0033-.81708l.01135-.00323c.0127-.00342.03223-.00928.05273-.01611,4.28809-1.00244,9.69629,1.62158,15.22656,7.38428.73987.77264,1.49219,1.62372,2.27771,2.5578A4.27661,4.27661,0,0,0,51.468,24.3465c-1.3429.98969-2.69971,2.10083-4.04517,3.31323a5.59,5.59,0,0,0-8.89221,2.17908,61.67168,61.67168,0,0,0-8.84509-1.59332,4.30668,4.30668,0,0,0-3.584-4.066C26.81445,17.1438,29.11108,12.15857,32.64746,10.09766ZM25.34863,25.08984H25.375a1.06009,1.06009,0,0,1,.12769.0094l.0061.00183.01733.00073.0022.00024a3.34452,3.34452,0,0,1,3.17676,3.34473,1.51247,1.51247,0,0,1-.00989.19409l-.00085.00269.00037.00323-.00134.01532a3.355,3.355,0,0,1-6.70215-.12549v-.08984A3.36077,3.36077,0,0,1,25.34863,25.08984ZM29.61157,29.243a60.6222,60.6222,0,0,1,8.62891,1.55481A5.52367,5.52367,0,0,0,39.72632,35.862,71.26923,71.26923,0,0,0,31.9574,48.11139a6.91984,6.91984,0,0,0-3.69495-.28308,84.28123,84.28123,0,0,1-2.303-15.08527A4.33238,4.33238,0,0,0,29.61157,29.243ZM28.02539,48.89063a5.46917,5.46917,0,0,1,1.57813-.22266A5.78619,5.78619,0,0,1,32,49.17822a5.93357,5.93357,0,1,1-3.97461-.2876ZM27.844,61.26886a6.90129,6.90129,0,0,0,1.75952.25507,6.79119,6.79119,0,0,0,1.7771-.25391,99.30177,99.30177,0,0,0,7.77319,16.12109,5.63985,5.63985,0,0,0-2.15674,4.42139c0,.11853.02.2334.02832.3512a82.51014,82.51014,0,0,1-12.47241.559A82.18822,82.18822,0,0,1,27.844,61.26886ZM23.5249,84.507c-.36816-.28217-.74243-.57648-1.12073-.887.37659.0224.7511.04858,1.1283.06531C23.52942,83.95813,23.5249,84.23071,23.5249,84.507Zm1.009.75848c-.00537-.23865-.00952-.47961-.00952-.71466,0-.27753.00488-.55328.00793-.82867.84265.02539,1.68884.043,2.53894.043A83.77982,83.77982,0,0,0,37.184,83.15442a5.57713,5.57713,0,0,0,8.46777,3.39966,40.16274,40.16274,0,0,0,7.18665,6.84149c-.908.06207-1.84009.10443-2.84521.10443A43.17588,43.17588,0,0,1,24.53394,85.26544ZM72.12134,87.436c1.5144-4.83038,1.939-11.16693,1.21252-18.48181a60.116,60.116,0,0,0,6.12732-5.30585,4.26425,4.26425,0,0,0,4.38916.46344,37.23535,37.23535,0,0,1,3.40894,8.34064A43.70065,43.70065,0,0,1,72.12134,87.436ZM87.943,71.24213a38.89225,38.89225,0,0,0-3.24011-7.657,4.32371,4.32371,0,0,0,.43091-6.49231,49.18144,49.18144,0,0,0,6.51855-11.87115c.31274-.824.585-1.61908.82813-2.38434a3.00285,3.00285,0,0,0,.32422.03278c.03931,0,.06616-.0094.10376-.0105a44.082,44.082,0,0,1,.59155,7.134A43.49885,43.49885,0,0,1,87.943,71.24213Zm3.56995-34.22668a3.07508,3.07508,0,0,0-1.75,2.43127c-.1543.00171-.30078.0069-.468.00641a41.18455,41.18455,0,0,1-25.458-8.69238.47.47,0,0,0-.07422-.07178,37.36316,37.36316,0,0,1-5.44678-5.25952,4.316,4.316,0,0,0,.95886-4.87854,50.86252,50.86252,0,0,1,16.56995-5.53741A43.7044,43.7044,0,0,1,91.51294,37.01544ZM29.26257,11.75684c-2.19934,2.746-3.61707,6.9325-4.15979,12.35785a4.33772,4.33772,0,0,0-4.0741,3.96167,35.11538,35.11538,0,0,0-9.66492,1.92035A43.65919,43.65919,0,0,1,29.26257,11.75684ZM10.71484,31.28839a33.36933,33.36933,0,0,1,10.343-2.211A4.3826,4.3826,0,0,0,24.959,32.75714a85.229,85.229,0,0,0,2.33923,15.33813,6.88587,6.88587,0,0,0-.40173,12.85242,83.1658,83.1658,0,0,0-3.343,21.73755c-.80957-.03638-1.61877-.0813-2.41992-.1402a43.552,43.552,0,0,1-10.4187-51.25665Z"></path><path xmlns="http://www.w3.org/2000/svg" d="M29.60352,59.04932a4.35693,4.35693,0,1,0-4.35645-4.35693A4.36239,4.36239,0,0,0,29.60352,59.04932Zm0-7.71387a3.35693,3.35693,0,1,1-3.35645,3.35693A3.36077,3.36077,0,0,1,29.60352,51.33545Z"></path></g><g id="SvgjsG1057" featurekey="nameFeature-0" transform="matrix(1.8695790594365018,0,0,1.8695790594365018,117.83120834269987,-7.565373219740582)" fill="#ffe6eb"><path d="M7.88 27.240000000000002 c-0.85332 -0.34668 -1.6466 -0.73332 -2.38 -1.16 s-1.3666 -0.94 -1.9 -1.54 s-0.94664 -1.3067 -1.24 -2.12 s-0.44 -1.78 -0.44 -2.9 c0 -1.3867 0.24 -2.6067 0.72 -3.66 s1.1533 -1.94 2.02 -2.66 s1.9134 -1.2667 3.14 -1.64 s2.5867 -0.56 4.08 -0.56 c1.2267 0 2.48 0.12668 3.76 0.38 s2.8133 0.68664 4.6 1.3 l-2.72 4.88 c-1.7333 -0.82668 -3.56 -1.24 -5.48 -1.24 c-0.37332 0 -0.76 0.04 -1.16 0.12 s-0.76 0.22 -1.08 0.42 s-0.58668 0.47332 -0.8 0.82 s-0.32 0.8 -0.32 1.36 c0 0.45332 0.08668 0.82664 0.26 1.12 s0.39332 0.54664 0.66 0.75996 s0.57336 0.39332 0.92004 0.54 s0.69336 0.28668 1.04 0.42 l2.36 0.92 c1.0133 0.4 1.94 0.82 2.78 1.26 s1.5533 0.97332 2.14 1.6 s1.04 1.3934 1.36 2.3 s0.48 2.04 0.48 3.4 s-0.24668 2.6 -0.74 3.72 s-1.2133 2.0733 -2.16 2.86 s-2.1134 1.4 -3.5 1.84 s-2.9734 0.66 -4.76 0.66 c-0.82668 0 -1.5867 -0.02668 -2.28 -0.08 s-1.3666 -0.14664 -2.02 -0.27996 s-1.3066 -0.29332 -1.96 -0.48 s-1.3533 -0.42668 -2.1 -0.72 l1.36 -5.6 c1.0933 0.29332 2.1666 0.55332 3.22 0.78 s2.1266 0.34 3.22 0.34 c1.4667 0 2.5867 -0.19332 3.36 -0.58 s1.2266 -1.1267 1.36 -2.22 c0.05332 -0.56 -0.013359 -1.0267 -0.20004 -1.4 s-0.45336 -0.68664 -0.80004 -0.93996 s-0.73336 -0.46 -1.16 -0.62 l-1.28 -0.48 z M25.592000000000002 11.48 c2.56 -0.24 5.1468 -0.36008 7.76 -0.36008 c1.36 0 2.7267 0.13332 4.1 0.4 s2.6133 0.77336 3.72 1.52 s2.0134 1.7867 2.72 3.12 s1.06 3.0533 1.06 5.16 s-0.35332 3.82 -1.06 5.14 s-1.6134 2.3533 -2.72 3.1 s-2.34 1.2534 -3.7 1.52 s-2.7067 0.4 -4.04 0.4 c-0.18668 0 -0.4 -0.0066796 -0.64 -0.02 s-0.46668 -0.03332 -0.68 -0.06 l0 8.6 l-6.52 0 l0 -28.52 z M32.112 24.96 l-0.16 0.88 c0.82668 0.10668 1.62 0.1 2.38 -0.02 s1.4267 -0.36 2 -0.72 s1.0333 -0.84668 1.38 -1.46 s0.52 -1.36 0.52 -2.24 s-0.13332 -1.62 -0.4 -2.22 s-0.62 -1.08 -1.06 -1.44 s-0.94 -0.62 -1.5 -0.78 s-1.1467 -0.24 -1.76 -0.24 l-0.56 0 l-0.84 0.08 l0 8.16 z M49.784000000000006 11.399999999999999 l6.52 0 l0 28.6 l-6.52 0 l0 -28.6 z M62.416000000000004 11.64 c1.2533 -0.16 2.5067 -0.28668 3.76 -0.38 s2.6 -0.14 4.04 -0.14 c5.0132 0 8.8268 1.22 11.44 3.66 s3.92 6.18 3.92 11.22 c0 5.0132 -1.3333 8.6732 -4 10.98 s-6.6132 3.46 -11.84 3.46 c-1.28 0 -2.5067 -0.04 -3.68 -0.12 s-2.3866 -0.2 -3.64 -0.36 l0 -28.32 z M68.976 34.6 c1.3067 0.13332 2.5467 0.13328 3.72 -0.000039062 s2.2066 -0.50664 3.1 -1.12 s1.6 -1.5266 2.12 -2.74 s0.78 -2.8333 0.78 -4.86 c0 -1.7867 -0.20668 -3.2534 -0.62 -4.4 s-0.97332 -2.06 -1.68 -2.74 s-1.52 -1.1533 -2.44 -1.42 s-1.8867 -0.4 -2.9 -0.4 l-0.98 0 l-1.1 0.08 l0 17.6 z M91.248 11.399999999999999 l16.84 0 c-0.26668 1.0133 -0.53336 1.9733 -0.80004 2.88 s-0.53336 1.84 -0.80004 2.8 l-8.8 0 c0 0.10668 0.01332 0.26 0.04 0.46 s0.04 0.35332 0.04 0.46 l0 4.2 l8.08 0 l0 5.72 l-8.08 0 l0 5.48 l-0.08 0.92 l10.56 0 l0 5.68 l-17 0 l0 -28.6 z M113.32000000000002 11.64 c1.28 -0.16 2.4533 -0.28668 3.52 -0.38 s2.2 -0.14 3.4 -0.14 c1.4667 0 2.9267 0.14 4.38 0.42 s2.7533 0.76668 3.9 1.46 s2.0734 1.6266 2.78 2.8 s1.06 2.6666 1.06 4.48 c0 1.04 -0.14 1.9733 -0.42 2.8 s-0.62668 1.5534 -1.04 2.18 s-0.87332 1.1734 -1.38 1.64 s-1 0.86 -1.48 1.18 l-0.2 0.12 l0.54 0.88 l1.32 2.2 l1.7 2.84 l1.7 2.82 l1.28 2.18 l0.5 0.84 l-7.32 0 l-7.56 -13.16 l0 13.2 l-6.68 0 l0 -28.36 z M120.00000000000001 26.560000000000002 l1.4 -0.64 c0.34668 -0.16 0.76 -0.36 1.24 -0.6 s0.94668 -0.55332 1.4 -0.94 s0.84 -0.84668 1.16 -1.38 s0.48 -1.1866 0.48 -1.96 c0 -0.82668 -0.12 -1.5134 -0.36 -2.06 s-0.57332 -0.98668 -1 -1.32 s-0.92668 -0.57332 -1.5 -0.72 s-1.1933 -0.22 -1.86 -0.22 l-0.46 0 l-0.5 0.04 l0 9.8 z"></path></g><g id="SvgjsG1058" featurekey="sloganFeature-0" transform="matrix(0.674490784467075,0,0,0.674490784467075,144.60872689092537,74.29030004218654)" fill="#ffe6eb"><path d="M3.94 13.620000000000001 c-0.42666 -0.17334 -0.82332 -0.36666 -1.19 -0.58 s-0.68332 -0.47 -0.94998 -0.77 s-0.47332 -0.65334 -0.61998 -1.06 s-0.22 -0.89 -0.22 -1.45 c0 -0.69334 0.12 -1.3033 0.36 -1.83 s0.57666 -0.97 1.01 -1.33 s0.95668 -0.63334 1.57 -0.82 s1.2933 -0.28 2.04 -0.28 c0.61334 0 1.24 0.06334 1.88 0.19 s1.4067 0.34332 2.3 0.64998 l-1.36 2.44 c-0.86666 -0.41334 -1.78 -0.62 -2.74 -0.62 c-0.18666 0 -0.38 0.02 -0.58 0.06 s-0.38 0.11 -0.54 0.21 s-0.29334 0.23666 -0.4 0.41 s-0.16 0.4 -0.16 0.68 c0 0.22666 0.04334 0.41332 0.13 0.55998 s0.19666 0.27332 0.33 0.37998 s0.28668 0.19666 0.46002 0.27 s0.34668 0.14334 0.52002 0.21 l1.18 0.46 c0.50666 0.2 0.97 0.41 1.39 0.63 s0.77666 0.48666 1.07 0.8 s0.52 0.69668 0.68 1.15 s0.24 1.02 0.24 1.7 s-0.12334 1.3 -0.37 1.86 s-0.60666 1.0367 -1.08 1.43 s-1.0567 0.7 -1.75 0.92 s-1.4867 0.33 -2.38 0.33 c-0.41334 0 -0.79334 -0.01334 -1.14 -0.04 s-0.68332 -0.07332 -1.01 -0.13998 s-0.65332 -0.14666 -0.97998 -0.24 s-0.67666 -0.21334 -1.05 -0.36 l0.68 -2.8 c0.54666 0.14666 1.0833 0.27666 1.61 0.39 s1.0633 0.17 1.61 0.17 c0.73334 0 1.2933 -0.09666 1.68 -0.29 s0.61332 -0.56334 0.67998 -1.11 c0.02666 -0.28 -0.0066796 -0.51334 -0.10002 -0.7 s-0.22668 -0.34332 -0.40002 -0.46998 s-0.36668 -0.23 -0.58002 -0.31 l-0.64 -0.24 z M12.38 5.74 c1.28 -0.12 2.5734 -0.18004 3.88 -0.18004 c0.68 0 1.3633 0.06666 2.05 0.2 s1.3067 0.38668 1.86 0.76002 s1.0067 0.89334 1.36 1.56 s0.53 1.5267 0.53 2.58 s-0.17666 1.91 -0.53 2.57 s-0.80668 1.1767 -1.36 1.55 s-1.17 0.62668 -1.85 0.76002 s-1.3533 0.2 -2.02 0.2 c-0.09334 0 -0.2 -0.0033398 -0.32 -0.01 s-0.23334 -0.01666 -0.34 -0.03 l0 4.3 l-3.26 0 l0 -14.26 z M15.64 12.48 l-0.08 0.44 c0.41334 0.05334 0.81 0.05 1.19 -0.01 s0.71334 -0.18 1 -0.36 s0.51666 -0.42334 0.69 -0.73 s0.26 -0.68 0.26 -1.12 s-0.06666 -0.81 -0.2 -1.11 s-0.31 -0.54 -0.53 -0.72 s-0.47 -0.31 -0.75 -0.39 s-0.57334 -0.12 -0.88 -0.12 l-0.28 0 l-0.42 0.04 l0 4.08 z M25.700000000000003 8.2 l-1.42 0 l1.3 -2.48 l4.4 0 l4.48 14.28 l-3.44 0 l-0.8 -2.86 l-0.78 0.06 l-2.78 0 l-0.68 -0.06 l-0.82 2.86 l-3.22 0 z M29.44 14.42 l-1.32 -4.76 l-1.4 4.76 l2.72 0 z M37.160000000000004 8.54 l-3.42 0 l0 -2.84 l10.3 0 l-0.46 1.4 l-0.46 1.44 l-2.68 0 l0.06 0.56 l0 10.9 l-3.34 0 l0 -11.46 z M45.6 5.699999999999999 l3.26 0 l0 14.3 l-3.26 0 l0 -14.3 z M54.24 8.2 l-1.42 0 l1.3 -2.48 l4.4 0 l4.48 14.28 l-3.44 0 l-0.8 -2.86 l-0.78 0.06 l-2.78 0 l-0.68 -0.06 l-0.82 2.86 l-3.22 0 z M57.980000000000004 14.42 l-1.32 -4.76 l-1.4 4.76 l2.72 0 z M64.62 5.699999999999999 l3.18 0 l0 11.42 l2.3 0 l0.5 0.06 l0 -1.36 l2.7 -1.26 l0 5.44 l-8.68 0 l0 -14.3 z M80.46000000000001 5.699999999999999 l3.26 0 l0 14.3 l-3.26 0 l0 -14.3 z M86.9 8.2 l-1.9 0 l1.3 -2.5 l3.28 0 l4.74 7.84 l0.12 0.34 l0 -8.18 l3.12 0 l0 14.3 l-2.66 0 l-4.8 -7.9 l-0.1 -0.3 l0 8.2 l-3.1 0 l0 -11.8 z M103.06 8.54 l-3.42 0 l0 -2.84 l10.3 0 l-0.46 1.4 l-0.46 1.44 l-2.68 0 l0.06 0.56 l0 10.9 l-3.34 0 l0 -11.46 z M111.54 5.699999999999999 l8.42 0 c-0.13334 0.50666 -0.26668 0.98666 -0.40002 1.44 s-0.26668 0.92 -0.40002 1.4 l-4.4 0 c0 0.05334 0.0066602 0.13 0.02 0.23 s0.02 0.17666 0.02 0.23 l0 2.1 l4.04 0 l0 2.86 l-4.04 0 l0 2.74 l-0.04 0.46 l5.28 0 l0 2.84 l-8.5 0 l0 -14.3 z M122.16000000000001 5.82 c0.64 -0.08 1.2266 -0.14334 1.76 -0.19 s1.1 -0.07 1.7 -0.07 c0.73334 0 1.4633 0.07 2.19 0.21 s1.3767 0.38334 1.95 0.73 s1.0367 0.81332 1.39 1.4 s0.53 1.3333 0.53 2.24 c0 0.52 -0.07 0.98666 -0.21 1.4 s-0.31334 0.77668 -0.52 1.09 s-0.43666 0.58668 -0.69 0.82002 s-0.5 0.43 -0.74 0.59 l-0.1 0.06 l0.27 0.44 l0.66 1.1 l0.85 1.42 l0.85 1.41 l0.64 1.09 l0.25 0.42 l-3.66 0 l-3.78 -6.58 l0 6.6 l-3.34 0 l0 -14.18 z M125.5 13.280000000000001 l0.7 -0.32 c0.17334 -0.08 0.38 -0.18 0.62 -0.3 s0.47334 -0.27666 0.7 -0.47 s0.42 -0.42334 0.58 -0.69 s0.24 -0.59332 0.24 -0.97998 c0 -0.41334 -0.06 -0.75668 -0.18 -1.03 s-0.28666 -0.49334 -0.5 -0.66 s-0.46334 -0.28666 -0.75 -0.36 s-0.59666 -0.11 -0.93 -0.11 l-0.23 0 l-0.25 0.02 l0 4.9 z M137.14000000000001 8.2 l-1.42 0 l1.3 -2.48 l4.4 0 l4.48 14.28 l-3.44 0 l-0.8 -2.86 l-0.78 0.06 l-2.78 0 l-0.68 -0.06 l-0.82 2.86 l-3.22 0 z M140.88000000000002 14.42 l-1.32 -4.76 l-1.4 4.76 l2.72 0 z M156.60000000000002 19.66 c-0.56 0.22666 -1.0966 0.37664 -1.61 0.44998 s-1.0833 0.11 -1.71 0.11 c-1.1333 0 -2.1266 -0.18 -2.98 -0.54 s-1.5633 -0.86334 -2.13 -1.51 s-0.99332 -1.4167 -1.28 -2.31 s-0.43 -1.8733 -0.43 -2.94 s0.14666 -2.0534 0.44 -2.96 s0.72334 -1.6867 1.29 -2.34 s1.27 -1.1633 2.11 -1.53 s1.8 -0.55 2.88 -0.55 c0.62666 0 1.1933 0.06 1.7 0.18 s1 0.28666 1.48 0.5 l-0.82 2.66 c-0.26666 -0.12 -0.56332 -0.22666 -0.88998 -0.32 s-0.71666 -0.14 -1.17 -0.14 c-2.3734 0 -3.56 1.5 -3.56 4.5 c0 1.5067 0.30666 2.62 0.92 3.34 s1.56 1.08 2.84 1.08 c0.42666 0 0.80332 -0.03 1.13 -0.09 s0.65 -0.15 0.97 -0.27 z M161.04000000000002 8.54 l-3.42 0 l0 -2.84 l10.3 0 l-0.46 1.4 l-0.46 1.44 l-2.68 0 l0.06 0.56 l0 10.9 l-3.34 0 l0 -11.46 z M169.48000000000002 5.699999999999999 l3.26 0 l0 14.3 l-3.26 0 l0 -14.3 z M180.86000000000004 20.22 c-1.0933 0 -2.0234 -0.18666 -2.79 -0.56 s-1.3933 -0.88668 -1.88 -1.54 s-0.84332 -1.43 -1.07 -2.33 s-0.34 -1.8833 -0.34 -2.95 s0.11334 -2.05 0.34 -2.95 s0.58332 -1.6733 1.07 -2.32 s1.1133 -1.15 1.88 -1.51 s1.6967 -0.54 2.79 -0.54 s2.0234 0.18 2.79 0.54 s1.3933 0.86334 1.88 1.51 s0.84 1.42 1.06 2.32 s0.33 1.8833 0.33 2.95 s-0.11 2.05 -0.33 2.95 s-0.57334 1.6767 -1.06 2.33 s-1.1133 1.1667 -1.88 1.54 s-1.6967 0.56 -2.79 0.56 z M180.86000000000004 17.42 c0.92 0 1.5833 -0.38 1.99 -1.14 s0.61 -1.9067 0.61 -3.44 s-0.19666 -2.66 -0.59 -3.38 s-1.0567 -1.08 -1.99 -1.08 c-0.94666 0 -1.6233 0.36 -2.03 1.08 s-0.61 1.8467 -0.61 3.38 s0.20334 2.68 0.61 3.44 s1.0767 1.14 2.01 1.14 z M189.62000000000003 8.2 l-1.9 0 l1.3 -2.5 l3.28 0 l4.74 7.84 l0.12 0.34 l0 -8.18 l3.12 0 l0 14.3 l-2.66 0 l-4.8 -7.9 l-0.1 -0.3 l0 8.2 l-3.1 0 l0 -11.8 z M208.56000000000003 5.82 c0.62666 -0.08 1.2534 -0.14334 1.88 -0.19 s1.3 -0.07 2.02 -0.07 c2.5066 0 4.4134 0.61 5.72 1.83 s1.96 3.09 1.96 5.61 c0 2.5066 -0.66666 4.3366 -2 5.49 s-3.3066 1.73 -5.92 1.73 c-0.64 0 -1.2533 -0.02 -1.84 -0.06 s-1.1933 -0.1 -1.82 -0.18 l0 -14.16 z M211.84 17.3 c0.65334 0.06666 1.2734 0.06664 1.86 -0.000019531 s1.1033 -0.25332 1.55 -0.55998 s0.8 -0.76332 1.06 -1.37 s0.39 -1.4167 0.39 -2.43 c0 -0.89334 -0.10334 -1.6267 -0.31 -2.2 s-0.48666 -1.03 -0.84 -1.37 s-0.76 -0.57666 -1.22 -0.71 s-0.94334 -0.2 -1.45 -0.2 l-0.49 0 l-0.55 0.04 l0 8.8 z M222.56000000000003 5.699999999999999 l8.42 0 c-0.13334 0.50666 -0.26668 0.98666 -0.40002 1.44 s-0.26668 0.92 -0.40002 1.4 l-4.4 0 c0 0.05334 0.0066602 0.13 0.02 0.23 s0.02 0.17666 0.02 0.23 l0 2.1 l4.04 0 l0 2.86 l-4.04 0 l0 2.74 l-0.04 0.46 l5.28 0 l0 2.84 l-8.5 0 l0 -14.3 z M242.72000000000003 19.66 c-0.56 0.22666 -1.0966 0.37664 -1.61 0.44998 s-1.0833 0.11 -1.71 0.11 c-1.1333 0 -2.1266 -0.18 -2.98 -0.54 s-1.5633 -0.86334 -2.13 -1.51 s-0.99332 -1.4167 -1.28 -2.31 s-0.43 -1.8733 -0.43 -2.94 s0.14666 -2.0534 0.44 -2.96 s0.72334 -1.6867 1.29 -2.34 s1.27 -1.1633 2.11 -1.53 s1.8 -0.55 2.88 -0.55 c0.62666 0 1.1933 0.06 1.7 0.18 s1 0.28666 1.48 0.5 l-0.82 2.66 c-0.26666 -0.12 -0.56332 -0.22666 -0.88998 -0.32 s-0.71666 -0.14 -1.17 -0.14 c-2.3734 0 -3.56 1.5 -3.56 4.5 c0 1.5067 0.30666 2.62 0.92 3.34 s1.56 1.08 2.84 1.08 c0.42666 0 0.80332 -0.03 1.13 -0.09 s0.65 -0.15 0.97 -0.27 z M244.64000000000001 5.699999999999999 l3.26 0 l0 14.3 l-3.26 0 l0 -14.3 z M250.50000000000003 5.74 c1.28 -0.12 2.5734 -0.18004 3.88 -0.18004 c0.68 0 1.3633 0.06666 2.05 0.2 s1.3067 0.38668 1.86 0.76002 s1.0067 0.89334 1.36 1.56 s0.53 1.5267 0.53 2.58 s-0.17666 1.91 -0.53 2.57 s-0.80668 1.1767 -1.36 1.55 s-1.17 0.62668 -1.85 0.76002 s-1.3533 0.2 -2.02 0.2 c-0.09334 0 -0.2 -0.0033398 -0.32 -0.01 s-0.23334 -0.01666 -0.34 -0.03 l0 4.3 l-3.26 0 l0 -14.26 z M253.76000000000005 12.48 l-0.08 0.44 c0.41334 0.05334 0.81 0.05 1.19 -0.01 s0.71334 -0.18 1 -0.36 s0.51666 -0.42334 0.69 -0.73 s0.26 -0.68 0.26 -1.12 s-0.06666 -0.81 -0.2 -1.11 s-0.31 -0.54 -0.53 -0.72 s-0.47 -0.31 -0.75 -0.39 s-0.57334 -0.12 -0.88 -0.12 l-0.28 0 l-0.42 0.04 l0 4.08 z M262.26 5.699999999999999 l3.28 -0.000019531 l0 5.4 l4.26 0 l0 -5.4 l3.28 0 l0 14.3 l-3.28 0 l0 -6.1 c-0.08 0.01334 -0.15334 0.02668 -0.22 0.04002 l-0.24 0.04 l-3.36 0 l-0.44 -0.08 l0 6.1 l-3.28 0 l0 -14.3 z M275.70000000000005 5.699999999999999 l8.42 0 c-0.13334 0.50666 -0.26668 0.98666 -0.40002 1.44 s-0.26668 0.92 -0.40002 1.4 l-4.4 0 c0 0.05334 0.0066602 0.13 0.02 0.23 s0.02 0.17666 0.02 0.23 l0 2.1 l4.04 0 l0 2.86 l-4.04 0 l0 2.74 l-0.04 0.46 l5.28 0 l0 2.84 l-8.5 0 l0 -14.3 z M286.32 5.82 c0.64 -0.08 1.2266 -0.14334 1.76 -0.19 s1.1 -0.07 1.7 -0.07 c0.73334 0 1.4633 0.07 2.19 0.21 s1.3767 0.38334 1.95 0.73 s1.0367 0.81332 1.39 1.4 s0.53 1.3333 0.53 2.24 c0 0.52 -0.07 0.98666 -0.21 1.4 s-0.31334 0.77668 -0.52 1.09 s-0.43666 0.58668 -0.69 0.82002 s-0.5 0.43 -0.74 0.59 l-0.1 0.06 l0.27 0.44 l0.66 1.1 l0.85 1.42 l0.85 1.41 l0.64 1.09 l0.25 0.42 l-3.66 0 l-3.78 -6.58 l0 6.6 l-3.34 0 l0 -14.18 z M289.66 13.280000000000001 l0.7 -0.32 c0.17334 -0.08 0.38 -0.18 0.62 -0.3 s0.47334 -0.27666 0.7 -0.47 s0.42 -0.42334 0.58 -0.69 s0.24 -0.59332 0.24 -0.97998 c0 -0.41334 -0.06 -0.75668 -0.18 -1.03 s-0.28666 -0.49334 -0.5 -0.66 s-0.46334 -0.28666 -0.75 -0.36 s-0.59666 -0.11 -0.93 -0.11 l-0.23 0 l-0.25 0.02 l0 4.9 z"></path></g></svg>